<?xml version="1.0" encoding="UTF-8" standalone="no"?><!DOCTYPE svg PUBLIC "-//W3C//DTD SVG 1.1//EN" "http://www.w3.org/Graphics/SVG/1.1/DTD/svg11.dtd"><svg width="100%" height="100%" viewBox="0 0 534 534" version="1.1" xmlns="http://www.w3.org/2000/svg" xmlns:xlink="http://www.w3.org/1999/xlink" xml:space="preserve" xmlns:serif="http://www.serif.com/" style="fill-rule:evenodd;clip-rule:evenodd;stroke-linejoin:round;stroke-miterlimit:2;"><path d="M420,533.333l0,-193.333c0,-46.667 -16.667,-80 -56.667,-80c-33.333,0 -50,23.333 -60,43.333c-3.333,6.667 -3.333,16.667 -3.333,30l0,200l-113.333,0c-0,0 3.333,-326.666 -0,-360l113.333,0l0,50c13.333,-23.333 40,-60 100,-60c76.667,0 133.333,50 133.333,163.334l0,206.666l-113.333,0Zm-356.667,-410c-40,0 -63.333,-26.666 -63.333,-60c0,-36.666 26.667,-63.333 63.333,-63.333c36.667,0 63.334,26.667 63.334,63.333c3.333,33.334 -23.334,60 -63.334,60Zm56.667,410l-113.333,0l-0,-360l113.333,0l0,360Z" style="fill-rule:nonzero;"/></svg>